<svg xmlns="http://www.w3.org/2000/svg" width="20" height="20.004" viewBox="0 0 20 20.004">
  <defs>
    <style>
      .cls-1 {
        fill: #6d6d6d;
      }
    </style>
  </defs>
  <path id="globe" class="cls-1" d="M13.571,14.13C12.986,10.529,11.607,8,10,8s-2.984,2.529-3.569,6.13ZM6.13,18a25.279,25.279,0,0,0,.133,2.581h7.473A25.278,25.278,0,0,0,13.87,18a25.279,25.279,0,0,0-.133-2.581H6.263A25.279,25.279,0,0,0,6.13,18Zm13.1-3.872a10.023,10.023,0,0,0-6.372-5.711A13.612,13.612,0,0,1,14.87,14.13ZM7.147,8.419A10.016,10.016,0,0,0,.778,14.13H5.134A13.557,13.557,0,0,1,7.147,8.419Zm12.511,7H15.031c.085.847.133,1.714.133,2.581s-.048,1.734-.133,2.581h4.622A9.916,9.916,0,0,0,20,18a10.089,10.089,0,0,0-.343-2.581ZM4.84,18c0-.867.048-1.734.133-2.581H.347a9.778,9.778,0,0,0,0,5.162H4.969C4.888,19.736,4.84,18.869,4.84,18Zm1.593,3.872C7.018,25.475,8.4,28,10,28s2.984-2.529,3.569-6.13Zm6.425,5.711a10.033,10.033,0,0,0,6.372-5.711H14.874A13.612,13.612,0,0,1,12.857,27.585ZM.778,21.874a10.023,10.023,0,0,0,6.372,5.711,13.612,13.612,0,0,1-2.017-5.711H.778Z" transform="translate(0 -8)"/>
</svg>
