<svg xmlns="http://www.w3.org/2000/svg" width="25" height="21.094" viewBox="0 0 25 21.094">
  <defs>
    <style>
      .cls-1 {
        fill: #6d6d6d;
      }
    </style>
  </defs>
  <path id="tasks" class="cls-1" d="M10.132,36.859H24.194a.784.784,0,0,0,.781-.781V34.125a.784.784,0,0,0-.781-.781H10.132a.784.784,0,0,0-.781.781v1.953A.784.784,0,0,0,10.132,36.859Zm0,7.812H24.194a.784.784,0,0,0,.781-.781V41.937a.784.784,0,0,0-.781-.781H10.132a.784.784,0,0,0-.781.781V43.89A.784.784,0,0,0,10.132,44.671Zm0,7.812H24.194a.784.784,0,0,0,.781-.781V49.749a.784.784,0,0,0-.781-.781H10.132a.784.784,0,0,0-.781.781V51.7A.784.784,0,0,0,10.132,52.483ZM3.1,48.382a2.344,2.344,0,1,0,0,4.687,2.344,2.344,0,0,0,0-4.687Zm4.516-14.6L4.092,37.308l-.762.762a.622.622,0,0,1-.859,0L.147,35.755a.586.586,0,0,1,0-.83l.767-.767a.586.586,0,0,1,.83,0l1.108,1.079,3.11-3.091a.586.586,0,0,1,.83,0l.83.806A.591.591,0,0,1,7.617,33.783Zm0,7.793L4.092,45.1l-.767.767a.622.622,0,0,1-.859,0L.147,43.548a.586.586,0,0,1,0-.83l.767-.767a.586.586,0,0,1,.83,0L2.852,43.03l3.11-3.11a.586.586,0,0,1,.83,0l.83.83a.585.585,0,0,1,0,.825Z" transform="translate(0.025 -31.975)"/>
</svg>
